<?xml version="1.0" encoding="UTF-8" standalone="no"?>
<!-- Created with Inkscape (http://www.inkscape.org/) -->

<svg
   xmlns:dc="http://purl.org/dc/elements/1.1/"
   xmlns:cc="http://creativecommons.org/ns#"
   xmlns:rdf="http://www.w3.org/1999/02/22-rdf-syntax-ns#"
   xmlns:svg="http://www.w3.org/2000/svg"
   xmlns="http://www.w3.org/2000/svg"
   xmlns:sodipodi="http://sodipodi.sourceforge.net/DTD/sodipodi-0.dtd"
   xmlns:inkscape="http://www.inkscape.org/namespaces/inkscape"
   width="73.514465mm"
   height="24.870695mm"
   viewBox="0 0 73.514465 24.870695"
   version="1.1"
   id="svg8"
   inkscape:export-filename="/home/jer/projects/talks/learn-you-some-rust/intro/media/book-owner.png"
   inkscape:export-xdpi="95.998398"
   inkscape:export-ydpi="95.998398"
   sodipodi:docname="book-owner2.svg"
   inkscape:version="0.92.1 r">
  <defs
     id="defs2" />
  <sodipodi:namedview
     id="base"
     pagecolor="#ffffff"
     bordercolor="#666666"
     borderopacity="1.0"
     inkscape:pageopacity="0.0"
     inkscape:pageshadow="2"
     inkscape:zoom="1.979899"
     inkscape:cx="36.930478"
     inkscape:cy="26.207316"
     inkscape:document-units="mm"
     inkscape:current-layer="layer1"
     showgrid="false"
     fit-margin-top="0"
     fit-margin-left="0"
     fit-margin-right="0"
     fit-margin-bottom="0"
     inkscape:window-width="1918"
     inkscape:window-height="1042"
     inkscape:window-x="0"
     inkscape:window-y="18"
     inkscape:window-maximized="0" />
  <metadata
     id="metadata5">
    <rdf:RDF>
      <cc:Work
         rdf:about="">
        <dc:format>image/svg+xml</dc:format>
        <dc:type
           rdf:resource="http://purl.org/dc/dcmitype/StillImage" />
        <dc:title></dc:title>
      </cc:Work>
    </rdf:RDF>
  </metadata>
  <g
     inkscape:label="Layer 1"
     inkscape:groupmode="layer"
     id="layer1"
     transform="translate(-19.147701,-73.490805)">
    <g
       id="g3987"
       transform="matrix(0.21261846,0,0,0.21261846,53.125879,76.49566)">
      <path
         style="fill:none"
         inkscape:connector-curvature="0"
         d="m 28.528,85.446 4.101,-0.698 -11.88,-69.811 -2.53,0.43 c -1.426,0.242 -2.671,1.026 -3.509,2.206 -0.836,1.179 -1.164,2.615 -0.92,4.04 l 11.294,66.366 c 0.102,-0.195 0.199,-0.391 0.328,-0.573 0.742,-1.048 1.85,-1.745 3.116,-1.96 z"
         id="path3977" />
      <path
         style="fill:none"
         inkscape:connector-curvature="0"
         d="m 84.303,83.643 c -10e-4,0 -10e-4,0 -0.002,0.001 L 29.8,92.919 c -0.156,0.026 -0.311,0.039 -0.465,0.039 -0.018,0 -0.035,-0.004 -0.053,-0.005 -0.077,-0.001 -0.152,-0.013 -0.228,-0.02 -0.098,-0.01 -0.195,-0.02 -0.29,-0.039 -0.079,-0.017 -0.155,-0.04 -0.232,-0.063 -0.088,-0.026 -0.174,-0.054 -0.258,-0.089 -0.073,-0.03 -0.143,-0.065 -0.213,-0.101 -0.082,-0.042 -0.16,-0.088 -0.237,-0.138 -0.064,-0.042 -0.125,-0.084 -0.185,-0.131 -0.076,-0.059 -0.146,-0.122 -0.216,-0.189 -0.052,-0.05 -0.103,-0.098 -0.151,-0.152 -0.068,-0.076 -0.129,-0.159 -0.188,-0.243 -0.038,-0.054 -0.079,-0.105 -0.114,-0.162 -0.06,-0.099 -0.109,-0.204 -0.156,-0.311 -0.023,-0.051 -0.051,-0.099 -0.07,-0.151 -0.061,-0.163 -0.11,-0.333 -0.14,-0.51 -0.124,-0.728 0.043,-1.462 0.472,-2.066 0.428,-0.604 1.064,-1.004 1.793,-1.128 l 56.238,-9.57 -0.158,-0.928 c 0,-0.001 -0.001,-0.002 -0.001,-0.003 L 84.93,76.853 38.558,84.745 c -0.028,0.006 -0.056,0.009 -0.084,0.014 l -9.78,1.664 c -1.006,0.171 -1.886,0.723 -2.476,1.557 -0.589,0.831 -0.821,1.842 -0.65,2.847 l 10e-4,0.008 c 0.353,2.053 2.294,3.491 4.407,3.122 l 56.237,-9.57 -0.177,-1.037 z"
         id="path3979" />
      <polygon
         style="fill:none"
         points="84.765,75.876 81.613,57.353 81.612,57.35 76.835,29.275 76.835,29.274 72.885,6.066 29.507,13.447 41.386,83.258 "
         id="polygon3981" />
      <path
         style="fill:none"
         inkscape:connector-curvature="0"
         d="m 27.884,89.16 c -0.275,0.388 -0.383,0.86 -0.303,1.327 0.019,0.114 0.051,0.223 0.09,0.329 0.012,0.032 0.029,0.061 0.043,0.092 0.031,0.071 0.064,0.141 0.104,0.207 0.021,0.034 0.046,0.066 0.069,0.099 0.039,0.056 0.08,0.111 0.125,0.162 0.03,0.034 0.063,0.065 0.096,0.097 0.044,0.042 0.089,0.083 0.137,0.12 0.04,0.031 0.082,0.061 0.125,0.089 0.045,0.029 0.091,0.056 0.139,0.081 0.051,0.027 0.103,0.052 0.156,0.074 0.044,0.018 0.089,0.032 0.135,0.047 0.059,0.019 0.119,0.037 0.181,0.049 0.047,0.009 0.095,0.014 0.143,0.019 0.061,0.007 0.122,0.016 0.185,0.017 0.107,0.001 0.215,-0.004 0.325,-0.023 l 54.014,-9.192 -0.597,-3.508 -54.015,9.192 c -0.468,0.075 -0.877,0.332 -1.152,0.722 z"
         id="path3983" />
      <path
         inkscape:connector-curvature="0"
         d="m 86.929,82.694 c -0.046,-0.27 -0.303,-0.45 -0.571,-0.405 l -1.735,0.295 -0.597,-3.509 1.735,-0.295 c 0.269,-0.046 0.45,-0.301 0.405,-0.571 l -0.342,-2.013 c 0,-0.001 -0.001,-0.002 -0.001,-0.003 L 73.778,5.412 C 73.732,5.142 73.472,4.962 73.207,5.007 l -44.353,7.547 c 0,0 0,0 -10e-4,0 l -1.172,0.2 -9.629,1.638 c -1.686,0.287 -3.159,1.214 -4.149,2.609 -0.989,1.396 -1.376,3.093 -1.089,4.779 l 3.041,17.872 c 0,0 0,0 0,0 l 4.777,28.075 c 0,10e-4 10e-4,0.002 10e-4,0.003 l 3.958,23.261 c 0,0.001 0,0.003 0,0.004 0,0.002 10e-4,0.003 10e-4,0.005 l 0.072,0.424 c 0.014,0.079 0.049,0.145 0.094,0.205 0.621,1.983 2.443,3.37 4.57,3.37 0.27,0 0.544,-0.023 0.812,-0.069 l 56.725,-9.654 c 0.129,-0.022 0.244,-0.095 0.321,-0.202 0.075,-0.107 0.106,-0.24 0.084,-0.369 z M 72.885,6.066 76.834,29.275 c 0,0 0,0.001 0,0.001 l 4.777,28.075 c 0,10e-4 10e-4,0.002 10e-4,0.003 L 84.764,75.877 41.386,83.259 29.507,13.447 Z M 25.083,87.979 13.789,21.613 c -0.243,-1.426 0.084,-2.861 0.92,-4.04 0.837,-1.18 2.083,-1.964 3.509,-2.206 l 2.53,-0.43 11.88,69.811 -4.101,0.698 c -1.266,0.215 -2.374,0.912 -3.117,1.96 -0.128,0.182 -0.225,0.379 -0.327,0.573 z m 4.893,5.977 c -2.113,0.369 -4.054,-1.069 -4.407,-3.122 l -10e-4,-0.008 c -0.17,-1.005 0.061,-2.015 0.65,-2.847 0.59,-0.834 1.47,-1.386 2.476,-1.557 l 9.78,-1.664 c 0.028,-0.005 0.056,-0.008 0.084,-0.014 l 46.372,-7.892 0.018,0.106 c 0,0.001 0.001,0.002 0.001,0.003 l 0.158,0.928 -56.238,9.57 c -0.728,0.124 -1.365,0.524 -1.793,1.128 -0.429,0.604 -0.596,1.338 -0.472,2.066 0.03,0.177 0.079,0.347 0.14,0.51 0.02,0.053 0.048,0.1 0.07,0.151 0.048,0.107 0.096,0.212 0.156,0.311 0.035,0.057 0.075,0.108 0.114,0.162 0.06,0.084 0.12,0.167 0.188,0.243 0.048,0.054 0.099,0.102 0.151,0.152 0.069,0.066 0.14,0.13 0.216,0.189 0.06,0.047 0.122,0.089 0.185,0.131 0.077,0.05 0.155,0.096 0.237,0.138 0.07,0.036 0.14,0.07 0.213,0.101 0.084,0.035 0.17,0.063 0.258,0.089 0.077,0.023 0.152,0.047 0.232,0.063 0.095,0.02 0.192,0.029 0.29,0.039 0.076,0.008 0.15,0.019 0.228,0.02 0.018,0 0.035,0.005 0.053,0.005 0.154,0 0.308,-0.013 0.465,-0.039 l 54.502,-9.275 c 10e-4,0 10e-4,0 0.002,-0.001 l 1.733,-0.295 0.177,1.037 z M 83.648,82.751 29.634,91.943 c -0.11,0.019 -0.218,0.024 -0.325,0.023 C 29.246,91.965 29.185,91.957 29.124,91.949 29.076,91.943 29.028,91.939 28.981,91.93 28.919,91.918 28.859,91.899 28.8,91.881 28.755,91.867 28.709,91.852 28.665,91.834 28.611,91.812 28.56,91.787 28.509,91.76 28.462,91.735 28.415,91.708 28.37,91.679 28.327,91.651 28.285,91.622 28.245,91.59 28.197,91.553 28.152,91.512 28.108,91.47 28.075,91.439 28.042,91.407 28.012,91.373 27.967,91.322 27.926,91.267 27.887,91.211 27.864,91.178 27.839,91.147 27.818,91.112 27.778,91.047 27.746,90.976 27.714,90.905 27.7,90.874 27.683,90.845 27.671,90.813 27.632,90.708 27.6,90.599 27.581,90.484 c -0.08,-0.467 0.028,-0.939 0.303,-1.327 0.275,-0.389 0.685,-0.646 1.152,-0.725 L 83.051,79.24 Z"
         id="path3985" />
    </g>
    <g
       transform="matrix(0.26458333,0,0,0.26458333,15.443531,-179.28217)"
       id="g4088">
      <path
         inkscape:connector-curvature="0"
         style="color:#000000;display:inline;overflow:visible;visibility:visible;fill:#000000;stroke:none;enable-background:accumulate"
         d="m 32.739385,962.60751 c -2.3731,3.54702 -3.3272,7.77508 -3.651,11.7831 -2.8164,-0.37746 -4.0567,1.95623 -4.1815,5.09455 0.064,3.03664 2.4082,7.46805 5.1801,6.59478 0.9112,3.34687 2.3335,6.67817 4.2751,9.62647 3.5222,5.34819 8.8318,9.58329 15.4779,9.65789 6.6372,0.074 11.9575,-4.1536 15.4779,-9.50159 1.9646,-2.9846 3.4012,-6.3611 4.3375,-9.75152 3.7643,1.17022 5.1549,-3.88864 5.1801,-6.62603 0.1249,-2.13816 0.1249,-6.13878 -4.0879,-5.12586 -0.3257,-4.01283 -1.3318,-8.19906 -3.6822,-11.72058 -3.0758,-4.60835 -8.6877,-7.74016 -16.9758,-7.21988 -0.1121,0.007 -0.1989,-0.008 -0.312,0 -6.7716,-0.0753 -13.879,2.65811 -17.0382,7.18867 z m 24.1218,7.25114 c 3.4866,2.41373 6.8202,6.15411 10.017,8.28255 -0.061,4.83332 -1.8529,10.90561 -4.8993,15.53371 -3.0464,4.628 -7.1412,7.74399 -12.0765,7.68869 -4.9868,-0.056 -9.1538,-3.21749 -12.2013,-7.84499 -2.7764,-4.2158 -4.435,-9.59134 -4.712,-14.15847 9.1353,-0.17243 14.9224,-2.53119 23.8721,-9.50149 z m 0.4993,34.72425 c -0.6404,0.2437 -1.1416,0.5885 -1.6227,0.9689 -2.4062,1.7583 -3.6766,4.283 -5.8354,5.6884 -1.7872,-1.6623 -3.1854,-4.0407 -4.7744,-5.5009 -0.4401,-0.3908 -0.916,-0.7712 -1.5603,-1.0314 -0.6134,-0.2477 -1.5257,-0.3221 -2.3404,0.031 v -0.031 c -6.2763,3.0702 -13.236,5.3743 -18.473601,8.7514 -4.9823,3.278 -8.541899,7.7381 -8.487899,13.8146 2e-4,0.022 -3e-4,0.041 0,0.062 -0.072,7.8966 -0.7311,12.8002 0.3433,16.5651 0.538899,1.8885 1.829099,3.5414 3.650999,4.3757 1.8069,0.8274 3.9455,1.0333 6.740401,1.0002 16.6035,0.1053 33.2246,0.1094 49.835,0.031 h 0.031 c 2.8362,0 5.0194,-0.2289 6.834,-1.0627 1.8221,-0.8372 3.1014,-2.4677 3.6511,-4.3444 1.0993,-3.7534 0.468,-8.6011 0.468,-16.4713 0,-6.1026 -3.8838,-10.5119 -8.8623,-13.846 -4.9785,-3.3341 -11.2248,-5.9187 -17.1006,-8.9076 -0.9308,-0.4188 -1.5682,-0.3126 -2.4964,-0.094 z m 1.1858,3.9068 c 1.8778,0.9464 3.748,1.8312 5.5857,2.7192 l -4.5872,7.845 -5.773,-5.8134 c 1.7086,-1.7156 3.2292,-3.4255 4.7745,-4.7508 z m -16.2268,0.094 c 1.475,1.3467 2.827,3.2915 3.9942,4.657 l -5.773,5.8134 -4.5247,-7.7824 c 2.0248,-0.8696 4.1169,-1.7552 6.3035,-2.6879 z"
         marker="none"
         visibility="visible"
         display="inline"
         overflow="visible"
         id="path4086" />
    </g>
    <g
       transform="matrix(0.26458333,0,0,0.26458333,69.114253,-179.28217)"
       id="g4161">
      <path
         inkscape:connector-curvature="0"
         d="m 32.90625,962.87634 c -2.29901,3.48319 -3.31312,7.63918 -3.6875,11.56901 -3.15458,-0.81805 -4.2173,2.85258 -4.21875,5.09662 0.42748,2.97611 1.62977,7.78269 5.0625,6.66 0.90367,3.48069 2.38238,6.94424 4.40625,10.00563 1.93429,2.92587 4.40797,5.4988 7.34375,7.2541 -5.96426,0.9442 -11.59482,2.9252 -16.25,5.7532 -6.71366,4.0786 -11.48788,10.1519 -11.40625,17.4473 0.0613,3.514 -0.25539,7.1432 -0.1875,10.2558 -1.5287,0.07 -2.9363,1.0136 -2.96875,2.4076 v 7.0352 c 0,1.488 2.0036,2.3899 3.6875,2.5014 26.48066,-0.1328 45.75849,0 70.625,0 1.74825,-0.01 3.64693,-0.7588 3.6875,-2.5014 v -7.0352 c 0,-1.4824 -1,-2.4829 -2.96875,-2.4076 0.0816,-3.0214 -0.18758,-6.3879 -0.1875,-10.1307 0,-7.3643 -4.81879,-13.4393 -11.5625,-17.5412 -4.60283,-2.7996 -10.1563,-4.7571 -16.03125,-5.7219 2.88181,-1.7281 5.31319,-4.27651 7.21875,-7.16032 2.05265,-3.10639 3.54864,-6.62797 4.46875,-10.16196 3.75432,-0.0556 5.03539,-3.72614 5.0625,-6.66 0.19867,-2.88013 -1.36222,-5.48089 -4.15625,-5.09662 -0.35047,-3.93915 -1.34817,-8.05972 -3.625,-11.53774 -3.05726,-4.67019 -8.70138,-7.75701 -16.90625,-6.87887 -0.1808,-0.0229 -0.32166,0.0191 -0.5,0 -6.32406,-0.91778 -13.62526,2.04038 -16.90625,6.84765 z M 62.875,969.1924 c 1.29787,1.26838 2.3137,3.08746 3.75,4.03352 0.26847,1.84563 0.39716,3.71252 0.375,5.47183 -0.0607,4.81934 -1.82488,10.86151 -4.875,15.47745 -3.05012,4.61595 -7.14889,7.7158 -12.09375,7.6606 -4.99638,-0.056 -9.16753,-3.20153 -12.21875,-7.81693 -3.05122,-4.61541 -4.78125,-10.64091 -4.78125,-15.44619 0.96875,-2.76438 4.16937,-5.1351 6.2812,-6.7538 1.05229,-0.79267 2.00973,-1.29096 2.96875,-1.56338 -0.49623,1.88863 -1.63366,3.71241 -2.15625,5.25295 -0.42957,1.30812 0.89506,2.83598 2.25,2.59521 6.77831,-1.27222 12.76038,-3.60538 17.5625,-8.22337 0.98183,-0.71582 2.01796,-0.82832 2.93755,-0.68789 z m -19.40625,38.1152 -2.875,6.0347 -4.28125,-4.4713 c 2.28728,-0.6926 4.69712,-1.2247 7.15625,-1.5634 z m 13.25,0.062 c 2.42298,0.3543 4.80902,0.8655 7.0625,1.5634 l -4.21875,4.4087 z m -24.53125,2.9705 7.53125,7.8794 c 0.89378,0.93 2.69869,0.6348 3.25,-0.5316 l 0.65625,-1.3757 c 0.68942,0.513 1.45477,0.9847 2.1875,1.4695 l -4.5,27.0465 c -3.88266,0 -7.17757,-0.014 -10.3125,-0.031 -0.0223,-4.0135 0,-7.9324 0,-11.9442 0.0244,-1.1352 -1.09076,-2.1567 -2.21875,-2.0324 -0.98275,0.1081 -1.80251,1.0434 -1.78125,2.0324 v 4.0023 h -8.96875 c -0.0619,-2.7816 0.12509,-6.2682 0.125,-10.1933 -0.15625,-6.8292 5.30772,-11.4196 9.5,-14.0391 1.54416,-0.8856 3.14449,-1.6935 4.53125,-2.2826 z m 35.6875,0.094 c 1.53945,0.6611 3.0016,1.4036 4.34375,2.22 5.9825,3.6388 9.625,8.5128 9.625,14.1329 -9e-5,3.8925 0.16014,7.3311 0.0937,10.0682 h -8.9375 v -4.0023 c 0.0244,-1.1352 -1.09076,-2.1567 -2.21875,-2.0324 -0.98275,0.1081 -1.80251,1.0434 -1.78125,2.0324 -0.004,3.9999 0,7.9213 0,11.913 -3.0279,0.012 -6.53755,0.021 -10.3125,0.031 l -4.5,-27.0152 c 0.78732,-0.4696 1.59009,-1.0601 2.28125,-1.5947 l 0.71875,1.5009 c 0.55131,1.1663 2.35622,1.4615 3.25,0.5315 z"
         style="color:#000000;text-indent:0;text-transform:none;direction:ltr;baseline-shift:baseline;display:inline;overflow:visible;visibility:visible;fill:#000000;fill-opacity:1;stroke:none;enable-background:accumulate"
         marker="none"
         visibility="visible"
         display="inline"
         overflow="visible"
         id="path4159" />
    </g>
  </g>
</svg>
