<svg xmlns="http://www.w3.org/2000/svg" xmlns:xlink="http://www.w3.org/1999/xlink" version="1.1" x="0px" y="0px" viewBox="0 0 100 125" enable-background="new 0 0 100 100" xml:space="preserve"><g><path fill="none" d="M28.528,85.446l4.101-0.698l-11.88-69.811l-2.53,0.43c-1.426,0.242-2.671,1.026-3.509,2.206   c-0.836,1.179-1.164,2.615-0.92,4.04l11.294,66.366c0.102-0.195,0.199-0.391,0.328-0.573   C26.154,86.358,27.262,85.661,28.528,85.446z"/><path fill="none" d="M84.303,83.643c-0.001,0-0.001,0-0.002,0.001L29.8,92.919c-0.156,0.026-0.311,0.039-0.465,0.039   c-0.018,0-0.035-0.004-0.053-0.005c-0.077-0.001-0.152-0.013-0.228-0.02c-0.098-0.01-0.195-0.02-0.29-0.039   c-0.079-0.017-0.155-0.04-0.232-0.063c-0.088-0.026-0.174-0.054-0.258-0.089c-0.073-0.03-0.143-0.065-0.213-0.101   c-0.082-0.042-0.16-0.088-0.237-0.138c-0.064-0.042-0.125-0.084-0.185-0.131c-0.076-0.059-0.146-0.122-0.216-0.189   c-0.052-0.05-0.103-0.098-0.151-0.152c-0.068-0.076-0.129-0.159-0.188-0.243c-0.038-0.054-0.079-0.105-0.114-0.162   c-0.06-0.099-0.109-0.204-0.156-0.311c-0.023-0.051-0.051-0.099-0.07-0.151c-0.061-0.163-0.11-0.333-0.14-0.51   c-0.124-0.728,0.043-1.462,0.472-2.066c0.428-0.604,1.064-1.004,1.793-1.128l56.238-9.57l-0.158-0.928   c0-0.001-0.001-0.002-0.001-0.003l-0.018-0.106l-46.372,7.892c-0.028,0.006-0.056,0.009-0.084,0.014l-9.78,1.664   c-1.006,0.171-1.886,0.723-2.476,1.557c-0.589,0.831-0.821,1.842-0.65,2.847l0.001,0.008c0.353,2.053,2.294,3.491,4.407,3.122   l56.237-9.57l-0.177-1.037L84.303,83.643z"/><polygon fill="none" points="84.765,75.876 81.613,57.353 81.612,57.35 76.835,29.275 76.835,29.274 72.885,6.066 29.507,13.447    41.386,83.258  "/><path fill="none" d="M27.884,89.16c-0.275,0.388-0.383,0.86-0.303,1.327c0.019,0.114,0.051,0.223,0.09,0.329   c0.012,0.032,0.029,0.061,0.043,0.092c0.031,0.071,0.064,0.141,0.104,0.207c0.021,0.034,0.046,0.066,0.069,0.099   c0.039,0.056,0.08,0.111,0.125,0.162c0.03,0.034,0.063,0.065,0.096,0.097c0.044,0.042,0.089,0.083,0.137,0.12   c0.04,0.031,0.082,0.061,0.125,0.089c0.045,0.029,0.091,0.056,0.139,0.081c0.051,0.027,0.103,0.052,0.156,0.074   c0.044,0.018,0.089,0.032,0.135,0.047c0.059,0.019,0.119,0.037,0.181,0.049c0.047,0.009,0.095,0.014,0.143,0.019   c0.061,0.007,0.122,0.016,0.185,0.017c0.107,0.001,0.215-0.004,0.325-0.023l54.014-9.192l-0.597-3.508l-54.015,9.192   C28.568,88.513,28.159,88.77,27.884,89.16z"/><path d="M86.929,82.694c-0.046-0.27-0.303-0.45-0.571-0.405l-1.735,0.295l-0.597-3.509l1.735-0.295   c0.269-0.046,0.45-0.301,0.405-0.571l-0.342-2.013c0-0.001-0.001-0.002-0.001-0.003L73.778,5.412   c-0.046-0.27-0.306-0.45-0.571-0.405l-44.353,7.547c0,0,0,0-0.001,0l-1.172,0.2l-9.629,1.638c-1.686,0.287-3.159,1.214-4.149,2.609   c-0.989,1.396-1.376,3.093-1.089,4.779l3.041,17.872c0,0,0,0,0,0l4.777,28.075c0,0.001,0.001,0.002,0.001,0.003l3.958,23.261   c0,0.001,0,0.003,0,0.004c0,0.002,0.001,0.003,0.001,0.005l0.072,0.424c0.014,0.079,0.049,0.145,0.094,0.205   c0.621,1.983,2.443,3.37,4.57,3.37c0.27,0,0.544-0.023,0.812-0.069l56.725-9.654c0.129-0.022,0.244-0.095,0.321-0.202   c0.075-0.107,0.106-0.24,0.084-0.369L86.929,82.694z M72.885,6.066l3.949,23.209c0,0,0,0.001,0,0.001l4.777,28.075   c0,0.001,0.001,0.002,0.001,0.003l3.152,18.523l-43.378,7.382L29.507,13.447L72.885,6.066z M25.083,87.979L13.789,21.613   c-0.243-1.426,0.084-2.861,0.92-4.04c0.837-1.18,2.083-1.964,3.509-2.206l2.53-0.43l11.88,69.811l-4.101,0.698   c-1.266,0.215-2.374,0.912-3.117,1.96C25.282,87.588,25.185,87.785,25.083,87.979z M29.976,93.956   c-2.113,0.369-4.054-1.069-4.407-3.122l-0.001-0.008c-0.17-1.005,0.061-2.015,0.65-2.847c0.59-0.834,1.47-1.386,2.476-1.557   l9.78-1.664c0.028-0.005,0.056-0.008,0.084-0.014l46.372-7.892l0.018,0.106c0,0.001,0.001,0.002,0.001,0.003l0.158,0.928   l-56.238,9.57c-0.728,0.124-1.365,0.524-1.793,1.128c-0.429,0.604-0.596,1.338-0.472,2.066c0.03,0.177,0.079,0.347,0.14,0.51   c0.02,0.053,0.048,0.1,0.07,0.151c0.048,0.107,0.096,0.212,0.156,0.311c0.035,0.057,0.075,0.108,0.114,0.162   c0.06,0.084,0.12,0.167,0.188,0.243c0.048,0.054,0.099,0.102,0.151,0.152c0.069,0.066,0.14,0.13,0.216,0.189   c0.06,0.047,0.122,0.089,0.185,0.131c0.077,0.05,0.155,0.096,0.237,0.138c0.07,0.036,0.14,0.07,0.213,0.101   c0.084,0.035,0.17,0.063,0.258,0.089c0.077,0.023,0.152,0.047,0.232,0.063c0.095,0.02,0.192,0.029,0.29,0.039   c0.076,0.008,0.15,0.019,0.228,0.02c0.018,0,0.035,0.005,0.053,0.005c0.154,0,0.308-0.013,0.465-0.039l54.502-9.275   c0.001,0,0.001,0,0.002-0.001l1.733-0.295l0.177,1.037L29.976,93.956z M83.648,82.751l-54.014,9.192   c-0.11,0.019-0.218,0.024-0.325,0.023c-0.063-0.001-0.124-0.009-0.185-0.017c-0.048-0.006-0.096-0.01-0.143-0.019   c-0.062-0.012-0.122-0.031-0.181-0.049c-0.045-0.014-0.091-0.029-0.135-0.047c-0.054-0.022-0.105-0.047-0.156-0.074   c-0.047-0.025-0.094-0.052-0.139-0.081c-0.043-0.028-0.085-0.057-0.125-0.089c-0.048-0.037-0.093-0.078-0.137-0.12   c-0.033-0.031-0.066-0.063-0.096-0.097c-0.045-0.051-0.086-0.106-0.125-0.162c-0.023-0.033-0.048-0.064-0.069-0.099   c-0.04-0.065-0.072-0.136-0.104-0.207c-0.014-0.031-0.031-0.06-0.043-0.092c-0.039-0.105-0.071-0.214-0.09-0.329   c-0.08-0.467,0.028-0.939,0.303-1.327c0.275-0.389,0.685-0.646,1.152-0.725l54.015-9.192L83.648,82.751z"/></g><text x="0" y="115" fill="#000000" font-size="5px" font-weight="bold" font-family="'Helvetica Neue', Helvetica, Arial-Unicode, Arial, Sans-serif">Created by Valery</text><text x="0" y="120" fill="#000000" font-size="5px" font-weight="bold" font-family="'Helvetica Neue', Helvetica, Arial-Unicode, Arial, Sans-serif">from the Noun Project</text></svg>