<svg xmlns:dc="http://purl.org/dc/elements/1.1/" xmlns:cc="http://creativecommons.org/ns#" xmlns:rdf="http://www.w3.org/1999/02/22-rdf-syntax-ns#" xmlns:svg="http://www.w3.org/2000/svg" xmlns="http://www.w3.org/2000/svg" xmlns:sodipodi="http://sodipodi.sourceforge.net/DTD/sodipodi-0.dtd" xmlns:inkscape="http://www.inkscape.org/namespaces/inkscape" version="1.1" x="0px" y="0px" viewBox="0 0 100 125"><g transform="translate(0,-952.36218)"><path d="m 32.90625,962.87634 c -2.29901,3.48319 -3.31312,7.63918 -3.6875,11.56901 -3.15458,-0.81805 -4.2173,2.85258 -4.21875,5.09662 0.42748,2.97611 1.62977,7.78269 5.0625,6.66 0.90367,3.48069 2.38238,6.94424 4.40625,10.00563 1.93429,2.92587 4.40797,5.4988 7.34375,7.2541 -5.96426,0.9442 -11.59482,2.9252 -16.25,5.7532 -6.71366,4.0786 -11.48788,10.1519 -11.40625,17.4473 0.0613,3.514 -0.25539,7.1432 -0.1875,10.2558 -1.5287,0.07 -2.9363,1.0136 -2.96875,2.4076 l 0,7.0352 c 0,1.488 2.0036,2.3899 3.6875,2.5014 26.48066,-0.1328 45.75849,0 70.625,0 1.74825,-0.01 3.64693,-0.7588 3.6875,-2.5014 l 0,-7.0352 c 0,-1.4824 -1,-2.4829 -2.96875,-2.4076 0.0816,-3.0214 -0.18758,-6.3879 -0.1875,-10.1307 0,-7.3643 -4.81879,-13.4393 -11.5625,-17.5412 -4.60283,-2.7996 -10.1563,-4.7571 -16.03125,-5.7219 2.88181,-1.7281 5.31319,-4.27651 7.21875,-7.16032 2.05265,-3.10639 3.54864,-6.62797 4.46875,-10.16196 3.75432,-0.0556 5.03539,-3.72614 5.0625,-6.66 0.19867,-2.88013 -1.36222,-5.48089 -4.15625,-5.09662 -0.35047,-3.93915 -1.34817,-8.05972 -3.625,-11.53774 -3.05726,-4.67019 -8.70138,-7.75701 -16.90625,-6.87887 -0.1808,-0.0229 -0.32166,0.0191 -0.5,0 -6.32406,-0.91778 -13.62526,2.04038 -16.90625,6.84765 z M 62.875,969.1924 c 1.29787,1.26838 2.3137,3.08746 3.75,4.03352 0.26847,1.84563 0.39716,3.71252 0.375,5.47183 -0.0607,4.81934 -1.82488,10.86151 -4.875,15.47745 -3.05012,4.61595 -7.14889,7.7158 -12.09375,7.6606 -4.99638,-0.056 -9.16753,-3.20153 -12.21875,-7.81693 -3.05122,-4.61541 -4.78125,-10.64091 -4.78125,-15.44619 0.96875,-2.76438 4.16937,-5.1351 6.2812,-6.7538 1.05229,-0.79267 2.00973,-1.29096 2.96875,-1.56338 -0.49623,1.88863 -1.63366,3.71241 -2.15625,5.25295 -0.42957,1.30812 0.89506,2.83598 2.25,2.59521 6.77831,-1.27222 12.76038,-3.60538 17.5625,-8.22337 0.98183,-0.71582 2.01796,-0.82832 2.93755,-0.68789 z m -19.40625,38.1152 -2.875,6.0347 -4.28125,-4.4713 c 2.28728,-0.6926 4.69712,-1.2247 7.15625,-1.5634 z m 13.25,0.062 c 2.42298,0.3543 4.80902,0.8655 7.0625,1.5634 l -4.21875,4.4087 z m -24.53125,2.9705 7.53125,7.8794 c 0.89378,0.93 2.69869,0.6348 3.25,-0.5316 l 0.65625,-1.3757 c 0.68942,0.513 1.45477,0.9847 2.1875,1.4695 l -4.5,27.0465 c -3.88266,0 -7.17757,-0.014 -10.3125,-0.031 -0.0223,-4.0135 0,-7.9324 0,-11.9442 0.0244,-1.1352 -1.09076,-2.1567 -2.21875,-2.0324 -0.98275,0.1081 -1.80251,1.0434 -1.78125,2.0324 l 0,4.0023 -8.96875,0 c -0.0619,-2.7816 0.12509,-6.2682 0.125,-10.1933 -0.15625,-6.8292 5.30772,-11.4196 9.5,-14.0391 1.54416,-0.8856 3.14449,-1.6935 4.53125,-2.2826 z m 35.6875,0.094 c 1.53945,0.6611 3.0016,1.4036 4.34375,2.22 5.9825,3.6388 9.625,8.5128 9.625,14.1329 -9e-5,3.8925 0.16014,7.3311 0.0937,10.0682 l -8.9375,0 0,-4.0023 c 0.0244,-1.1352 -1.09076,-2.1567 -2.21875,-2.0324 -0.98275,0.1081 -1.80251,1.0434 -1.78125,2.0324 -0.004,3.9999 0,7.9213 0,11.913 -3.0279,0.012 -6.53755,0.021 -10.3125,0.031 l -4.5,-27.0152 c 0.78732,-0.4696 1.59009,-1.0601 2.28125,-1.5947 l 0.71875,1.5009 c 0.55131,1.1663 2.35622,1.4615 3.25,0.5315 z" style="text-indent:0;text-transform:none;direction:ltr;block-progression:tb;baseline-shift:baseline;color:#000000;enable-background:accumulate;" fill="#000000" fill-opacity="1" stroke="none" marker="none" visibility="visible" display="inline" overflow="visible"/></g><text x="0" y="115" fill="#000000" font-size="5px" font-weight="bold" font-family="'Helvetica Neue', Helvetica, Arial-Unicode, Arial, Sans-serif">Created by zidney</text><text x="0" y="120" fill="#000000" font-size="5px" font-weight="bold" font-family="'Helvetica Neue', Helvetica, Arial-Unicode, Arial, Sans-serif">from the Noun Project</text></svg>