<svg xmlns:dc="http://purl.org/dc/elements/1.1/" xmlns:cc="http://creativecommons.org/ns#" xmlns:rdf="http://www.w3.org/1999/02/22-rdf-syntax-ns#" xmlns:svg="http://www.w3.org/2000/svg" xmlns="http://www.w3.org/2000/svg" xmlns:sodipodi="http://sodipodi.sourceforge.net/DTD/sodipodi-0.dtd" xmlns:inkscape="http://www.inkscape.org/namespaces/inkscape" version="1.1" x="0px" y="0px" viewBox="0 0 100 125"><g transform="translate(0,-952.36218)"><path style="color:#000000;enable-background:accumulate;" d="m 32.739385,962.60751 c -2.3731,3.54702 -3.3272,7.77508 -3.651,11.7831 -2.8164,-0.37746 -4.0567,1.95623 -4.1815,5.09455 0.064,3.03664 2.4082,7.46805 5.1801,6.59478 0.9112,3.34687 2.3335,6.67817 4.2751,9.62647 3.5222,5.34819 8.8318,9.58329 15.4779,9.65789 6.6372,0.074 11.9575,-4.1536 15.4779,-9.50159 1.9646,-2.9846 3.4012,-6.3611 4.3375,-9.75152 3.7643,1.17022 5.1549,-3.88864 5.1801,-6.62603 0.1249,-2.13816 0.1249,-6.13878 -4.0879,-5.12586 -0.3257,-4.01283 -1.3318,-8.19906 -3.6822,-11.72058 -3.0758,-4.60835 -8.6877,-7.74016 -16.9758,-7.21988 -0.1121,0.007 -0.1989,-0.008 -0.312,0 -6.7716,-0.0753 -13.879,2.65811 -17.0382,7.18867 z m 24.1218,7.25114 c 3.4866,2.41373 6.8202,6.15411 10.017,8.28255 -0.061,4.83332 -1.8529,10.90561 -4.8993,15.53371 -3.0464,4.628 -7.1412,7.74399 -12.0765,7.68869 -4.9868,-0.056 -9.1538,-3.21749 -12.2013,-7.84499 -2.7764,-4.2158 -4.435,-9.59134 -4.712,-14.15847 9.1353,-0.17243 14.9224,-2.53119 23.8721,-9.50149 z m 0.4993,34.72425 c -0.6404,0.2437 -1.1416,0.5885 -1.6227,0.9689 -2.4062,1.7583 -3.6766,4.283 -5.8354,5.6884 -1.7872,-1.6623 -3.1854,-4.0407 -4.7744,-5.5009 -0.4401,-0.3908 -0.916,-0.7712 -1.5603,-1.0314 -0.6134,-0.2477 -1.5257,-0.3221 -2.3404,0.031 l 0,-0.031 c -6.2763,3.0702 -13.236,5.3743 -18.473601,8.7514 -4.9823,3.278 -8.541899,7.7381 -8.487899,13.8146 2e-4,0.022 -3e-4,0.041 0,0.062 -0.072,7.8966 -0.7311,12.8002 0.3433,16.5651 0.538899,1.8885 1.829099,3.5414 3.650999,4.3757 1.8069,0.8274 3.9455,1.0333 6.740401,1.0002 16.6035,0.1053 33.2246,0.1094 49.835,0.031 l 0.031,0 c 2.8362,0 5.0194,-0.2289 6.834,-1.0627 1.8221,-0.8372 3.1014,-2.4677 3.6511,-4.3444 1.0993,-3.7534 0.468,-8.6011 0.468,-16.4713 0,-6.1026 -3.8838,-10.5119 -8.8623,-13.846 -4.9785,-3.3341 -11.2248,-5.9187 -17.1006,-8.9076 -0.9308,-0.4188 -1.5682,-0.3126 -2.4964,-0.094 z m 1.1858,3.9068 c 1.8778,0.9464 3.748,1.8312 5.5857,2.7192 l -4.5872,7.845 -5.773,-5.8134 c 1.7086,-1.7156 3.2292,-3.4255 4.7745,-4.7508 z m -16.2268,0.094 c 1.475,1.3467 2.827,3.2915 3.9942,4.657 l -5.773,5.8134 -4.5247,-7.7824 c 2.0248,-0.8696 4.1169,-1.7552 6.3035,-2.6879 z" fill="#000000" stroke="none" marker="none" visibility="visible" display="inline" overflow="visible"/></g><text x="0" y="115" fill="#000000" font-size="5px" font-weight="bold" font-family="'Helvetica Neue', Helvetica, Arial-Unicode, Arial, Sans-serif">Created by zidney</text><text x="0" y="120" fill="#000000" font-size="5px" font-weight="bold" font-family="'Helvetica Neue', Helvetica, Arial-Unicode, Arial, Sans-serif">from the Noun Project</text></svg>